<?xml version="1.0" encoding="UTF-8" standalone="no"?>
<svg width="24px" height="19px" viewBox="0 0 24 19" version="1.1" xmlns="http://www.w3.org/2000/svg" xmlns:xlink="http://www.w3.org/1999/xlink">
    <!-- Generator: Sketch 50.2 (55047) - http://www.bohemiancoding.com/sketch -->
    <title>icon_twtr_brand</title>
    <desc>Created with Sketch.</desc>
    <defs></defs>
    <g id="Page-1" stroke="none" stroke-width="1" fill="none" fill-rule="evenodd">
        <path d="M24,2.28 C23.1037344,2.66 22.2074689,2.945 21.2116183,3.04 C22.2074689,2.47 23.0041494,1.52 23.4024896,0.38 C22.406639,0.95 21.4107884,1.33 20.3153527,1.52 C19.4190871,0.57 18.1244813,0 16.7302905,0 C14.0414938,0 11.8506224,2.185 11.8506224,4.75 C11.8506224,5.13 11.8506224,5.51 11.9502075,5.89 C7.66804979,5.7 4.08298755,3.8 1.593361,0.855 C1.19502075,1.615 0.89626556,2.375 0.89626556,3.325 C0.89626556,5.035 1.79253112,6.46 3.08713693,7.315 C2.29045643,7.22 1.593361,7.03 0.89626556,6.65 L0.89626556,6.745 C0.89626556,9.025 2.58921162,11.02 4.87966805,11.495 C4.4813278,11.59 3.98340249,11.685 3.58506224,11.685 C3.28630705,11.685 2.98755187,11.685 2.68879668,11.59 C3.28630705,13.49 5.17842324,14.915 7.26970954,14.915 C5.57676349,16.245 3.48547718,17.005 1.19502075,17.005 C0.796680498,17.005 0.398340249,17.005 0,16.91 C2.09128631,18.24 4.68049793,19 7.46887967,19 C16.5311203,19 21.5103734,11.685 21.5103734,5.32 L21.5103734,4.655 C22.5062241,4.085 23.3029046,3.23 24,2.28" id="icon_twtr_brand" fill="#00ACC5" fill-rule="nonzero"></path>
    </g>
</svg>