<?xml version="1.0" encoding="UTF-8" standalone="no"?>
<svg width="21px" height="17px" viewBox="0 0 21 17" version="1.1" xmlns="http://www.w3.org/2000/svg" xmlns:xlink="http://www.w3.org/1999/xlink">
    <!-- Generator: Sketch 50.2 (55047) - http://www.bohemiancoding.com/sketch -->
    <title>icon_twtr</title>
    <desc>Created with Sketch.</desc>
    <defs></defs>
    <g id="Page-1" stroke="none" stroke-width="1" fill="none" fill-rule="evenodd">
        <g id="icon_twtr" fill="#FFFFFF" fill-rule="nonzero">
            <path d="M21,2.01875 C20.4048223,2.88645833 19.6852792,3.62578125 18.8413706,4.23671875 C18.8502538,4.36067708 18.8546954,4.54661458 18.8546954,4.79453125 C18.8546954,5.94557292 18.6859137,7.09440104 18.3483503,8.24101562 C18.0107868,9.38763021 17.4977792,10.4877604 16.8093274,11.5414063 C16.1208756,12.5950521 15.3013959,13.5269531 14.3508883,14.3371094 C13.4003807,15.1472656 12.2544416,15.7936198 10.9130711,16.2761719 C9.57170051,16.758724 8.13705584,17 6.60913706,17 C4.20177665,17 1.99873096,16.3580729 0,15.0742188 C0.310913706,15.1096354 0.657360406,15.1273438 1.0393401,15.1273438 C3.03807107,15.1273438 4.81916244,14.5164062 6.38261421,13.2945312 C5.4498731,13.2768229 4.61484772,12.991276 3.87753807,12.4378906 C3.14022843,11.8845052 2.63388325,11.1783854 2.35850254,10.3195313 C2.65164975,10.3638021 2.92258883,10.3859375 3.1713198,10.3859375 C3.55329949,10.3859375 3.93083756,10.3372396 4.30393401,10.2398437 C3.30901015,10.0361979 2.48508883,9.54257812 1.83217005,8.75898438 C1.17925127,7.97539062 0.852791878,7.065625 0.852791878,6.0296875 L0.852791878,5.9765625 C1.45685279,6.31302083 2.10532995,6.49453125 2.79822335,6.52109375 C2.21192893,6.13151042 1.74555838,5.62239583 1.39911168,4.99375 C1.05266497,4.36510417 0.879441624,3.68333333 0.879441624,2.9484375 C0.879441624,2.16927083 1.0748731,1.44765625 1.46573604,0.78359375 C2.54060914,2.10286458 3.84866751,3.15872396 5.38991117,3.95117188 C6.93115482,4.74361979 8.58121827,5.18411458 10.3401015,5.27265625 C10.2690355,4.93619792 10.2335025,4.60859375 10.2335025,4.28984375 C10.2335025,3.10338542 10.653236,2.09179688 11.492703,1.25507812 C12.3321701,0.418359375 13.3470812,0 14.5374365,0 C15.7810914,0 16.8293147,0.4515625 17.6821066,1.3546875 C18.6503807,1.16875 19.5609137,0.8234375 20.4137056,0.31875 C20.0850254,1.33697917 19.4543147,2.125 18.5215736,2.6828125 C19.3477157,2.59427083 20.1738579,2.37291667 21,2.01875 Z" id="icon-twtr"></path>
        </g>
    </g>
</svg>