<?xml version="1.0" encoding="UTF-8" standalone="no"?>
<svg width="24px" height="24px" viewBox="0 0 24 24" version="1.1" xmlns="http://www.w3.org/2000/svg" xmlns:xlink="http://www.w3.org/1999/xlink">
    <!-- Generator: Sketch 50.2 (55047) - http://www.bohemiancoding.com/sketch -->
    <title>icon_fb</title>
    <desc>Created with Sketch.</desc>
    <defs></defs>
    <g id="Page-1" stroke="none" stroke-width="1" fill="none" fill-rule="evenodd">
        <path d="M16.1744533,24 L16.1744533,14.7713849 L19.8304688,14.7713849 L20,11.4058045 L16.1735657,11.4058045 L16.1735657,8.90665309 L16.1735657,8.74881196 C16.1735657,7.82552615 16.3786009,7.26544467 17.6443153,7.26544467 C18.8212701,7.26544467 19.8979263,7.27138494 19.8979263,7.27138494 L19.9795852,4.12898847 C19.9795852,4.12898847 18.925119,4 17.5031873,4 C13.9794239,4 12.4500928,6.07484726 12.4500928,8.33384248 L12.4500928,11.4058045 L9,11.4058045 L9,14.7713849 L12.4500928,14.7713849 L12.4500928,24 L2,24 C0.8954305,24 1.3527075e-16,23.1045695 0,22 L0,2 C-1.3527075e-16,0.8954305 0.8954305,2.02906125e-16 2,0 L22,0 C23.1045695,-2.02906125e-16 24,0.8954305 24,2 L24,22 C24,23.1045695 23.1045695,24 22,24 L16.1744533,24 Z" id="icon_fb" fill="#015F88"></path>
    </g>
</svg>