<svg height="110" viewBox="0 0 110 110" width="110" xmlns="http://www.w3.org/2000/svg"><g fill="none" fill-rule="evenodd" transform="translate(-1)"><g fill="#007f7f"><circle cx="57" cy="55" r="47"/><path d="m95.2377789 62.8048795 14.2249421 6.8466202-5.298694 12.7921782-14.8998442-5.2172616 10.5220448 11.769102-9.7907093 9.7907093-11.769102-10.5220448 5.2172616 14.8998442-12.7921782 5.298694-6.8466202-14.2249421-.8818026 15.7622211h-13.8461538l-.8818026-15.7622211-6.8466202 14.2249421-12.7921782-5.298694 5.2172616-14.8998442-11.769102 10.5220448-9.7907093-9.7907093 10.5220448-11.769102-14.89984465 5.2172616-5.29869368-12.7921782 14.22494223-6.8466202-15.7622211-.8818026v-13.8461538l15.7622211-.8818026-14.22494223-6.8466202 5.29869368-12.7921782 14.89984465 5.2172616-10.5220448-11.769102 9.7907093-9.7907093 11.769102 10.5220448-5.2172616-14.89984465 12.7921782-5.29869368 6.8466202 14.22494223.8818026-15.7622211h13.8461538l.8818026 15.7622211 6.8466202-14.22494223 12.7921782 5.29869368-5.2172616 14.89984465 11.769102-10.5220448 9.7907093 9.7907093-10.5220448 11.769102 14.8998442-5.2172616 5.298694 12.7921782-14.2249421 6.8466202 15.7622211.8818026v13.8461538z"/></g><path d="m89.5963625 36.7047599c-13.8485008 8.0876247-12.8565972 24.6995299-22.5594494 32.1954543-7.3025726 5.6417194-17.6062896 2.7844717-23.5640698.3575515 0 0-4.0375564 5.0721684-6.9337879 11.8340048-.9696494 2.2687116-5.0797812-.1929163-4.4794623-2.1516372 5.4533506-17.7931962 19.30715-31.4360529 41.5613983-40.9285701-18.0153439 3.1641724-30.6154873 10.9227231-37.8004303 23.2756522-.4069348-4.5121099-1.0809206-16.719487 10.6820392-24.2059189 14.1265214-9.0004301 39.5795598-3.8300838 42.9585339-1.2215062.7618114.4811568.6300856.5580699.1352283.8449696z" fill="#fffdf8" fill-rule="nonzero" transform="matrix(.9781476 -.20791169 .20791169 .9781476 -10.51797 13.9282)"/></g></svg>